<?xml version="1.0" standalone="no"?><svg xmlns="http://www.w3.org/2000/svg" viewBox="0 0 1440 320"><path fill="#0099ff" fill-opacity="1" d="M0,160L21.8,170.7C43.6,181,87,203,131,202.7C174.5,203,218,181,262,160C305.5,139,349,117,393,96C436.4,75,480,53,524,74.7C567.3,96,611,160,655,186.7C698.2,213,742,203,785,208C829.1,213,873,235,916,202.7C960,171,1004,85,1047,53.3C1090.9,21,1135,43,1178,53.3C1221.8,64,1265,64,1309,80C1352.7,96,1396,128,1418,144L1440,160L1440,320L1418.2,320C1396.4,320,1353,320,1309,320C1265.5,320,1222,320,1178,320C1134.5,320,1091,320,1047,320C1003.6,320,960,320,916,320C872.7,320,829,320,785,320C741.8,320,698,320,655,320C610.9,320,567,320,524,320C480,320,436,320,393,320C349.1,320,305,320,262,320C218.2,320,175,320,131,320C87.3,320,44,320,22,320L0,320Z"></path></svg>